<svg width="1314.119" height="1150.718" xmlns="http://www.w3.org/2000/svg">

 <g>
  <title>background</title>
  <rect fill="none" id="canvas_background" height="602" width="802" y="-1" x="-1"/>
 </g>
 <g>
  <title>Layer 1</title>
  <g stroke="null" id="Group_56">
   <path stroke="null" opacity="0.35" fill="#ffad90" d="m1310.45221,196.84445c-76.52401,-74.03643 -363.73547,-108.05681 -501.1625,-44.30218c-175.72295,97.58374 -119.9161,254.48849 -235.73733,330.6752s-327.29253,145.27585 -296.75074,500.77164c18.88381,268.29222 903.51087,167.45335 1033.65373,150.46092l-0.00316,-937.60558z" id="Path_1"/>
   <path stroke="null" fill="#fff" d="m1248.96323,451.09656a37.19223,37.55056 0 0 0 -38.14574,-20.60094a44.54155,44.97069 0 0 0 -80.63684,-6.74524a32.12429,32.4338 0 0 0 -42.89885,27.34618l161.68142,0z" id="Path_2"/>
   <path stroke="null" fill="#fff" d="m829.25528,519.6168a13.79475,13.92765 0 0 0 -15.89752,-8.61052a25.49484,25.74047 0 0 0 -26.95893,-12.13706a40.98371,41.37857 0 0 0 -79.89713,6.25615c-0.30942,-0.01913 -0.61613,-0.04827 -0.93096,-0.04827a14.94311,15.08708 0 0 0 -14.92687,14.5397l138.6114,0z" id="Path_4"/>
   <path stroke="null" fill="#fff" d="m1120.63777,668.21685a34.05476,34.38287 0 0 0 -48.62891,-24.49544a49.84674,50.32699 0 0 0 -46.61094,-18.30669a65.74605,66.37949 0 0 0 -124.28893,7.19516a40.3315,40.72008 0 0 0 -29.08606,15.44592a47.65736,48.11653 0 0 0 -4.91639,-0.26322a46.71017,47.16021 0 0 0 -38.49665,20.42516l292.02788,-0.00091z" id="Path_5"/>
   <g stroke="null" id="Group_15">
    <g stroke="null" id="Group_4">
     <g stroke="null" id="Group_3">
      <path stroke="null" fill="#447575" d="m502.36081,1057.44155s-5.33135,-9.93844 -16.10229,-12.9012s-29.35759,6.22883 -29.35759,6.22883s8.95233,9.16427 25.22512,12.14617s20.23476,-5.47379 20.23476,-5.47379z" id="Path_6"/>
      <path stroke="null" fill="#447575" d="m487.32117,1027.96233c0.07758,-0.36978 -7.76699,-13.56425 -22.44217,-18.65916s-31.56049,-0.32242 -31.56049,-0.32242s4.84061,9.83643 24.16516,18.38319s29.8375,0.59838 29.8375,0.59838z" id="Path_7"/>
      <path stroke="null" fill="#447575" d="m458.30187,988.8844a37.71815,38.08155 0 0 0 -25.63015,-13.26825c-16.51545,-1.22409 -24.19493,6.04485 -24.19493,6.04485s4.08466,7.34271 24.2265,11.41572s25.59858,-4.19232 25.59858,-4.19232z" id="Path_8"/>
      <path stroke="null" fill="#447575" d="m438.61197,968.1022a75.49674,76.22412 0 0 1 -34.35155,-7.12686c-17.31289,-8.37918 -22.79489,-27.91451 -22.79489,-27.91451s20.41157,-2.07567 37.03887,10.16158s20.10757,24.87979 20.10757,24.87979z" id="Path_9"/>
      <path stroke="null" fill="#447575" d="m452.75763,974.50407s-13.65041,-10.56505 -18.01021,-19.64462s-6.73861,-23.29867 -6.73861,-23.29867a40.96837,41.36309 0 0 1 24.01812,18.48156c9.31497,15.32024 0.73069,24.46174 0.73069,24.46174z" id="Path_10"/>
      <path stroke="null" fill="#447575" d="m481.86805,1004.03523a73.91718,74.62934 0 0 1 -14.06447,-26.81155c-4.92901,-16.7028 2.08473,-33.55406 2.08473,-33.55406s15.63771,12.67078 18.72105,29.62495s-6.74131,30.74066 -6.74131,30.74066z" id="Path_11"/>
      <path stroke="null" fill="#447575" d="m508.03404,1047.5423s-6.29568,-11.43758 -8.65464,-31.2088s10.42454,-42.7493 10.42454,-42.7493s16.83569,25.2104 14.52363,43.4588s-16.29353,30.4993 -16.29353,30.4993z" id="Path_12"/>
      <g stroke="null" id="Group_2">
       <path stroke="null" fill="#447575" d="m473.37668,1050.79468a218.84681,220.95532 0 0 1 31.36473,6.17145a232.21847,234.45582 0 0 0 -12.52821,-24.98817a201.42476,203.36542 0 0 0 -44.72558,-19.61001a200.81946,202.75428 0 0 1 42.15643,15.2747a232.73086,234.97314 0 0 0 -26.6883,-35.78183a210.16149,212.18632 0 0 0 -39.3825,-11.87475a208.81738,210.82926 0 0 1 36.56798,8.82455a232.46835,234.7081 0 0 0 -65.26344,-48.72402a233.43719,235.68628 0 0 1 60.19911,41.364a225.78387,227.95922 0 0 0 -19.6051,-38.31471a227.56459,229.7571 0 0 1 21.90994,40.34757c-0.16869,-0.10019 16.66249,17.69737 24.14892,27.68772a229.92536,232.14061 0 0 0 -9.47194,-55.5576a230.91766,233.14247 0 0 1 11.51878,58.32091a234.83814,237.10072 0 0 1 22.11562,37.08516a233.60949,235.86024 0 0 0 5.62272,-48.11653a234.42047,236.67903 0 0 1 -3.30616,53.0985a235.80608,238.07799 0 0 1 11.43939,30.85633q-1.80418,1.04558 -3.62369,2.07567a232.64877,234.89026 0 0 0 -9.62168,-28.48192a207.68796,209.68896 0 0 0 -32.82702,-9.657z" id="Path_13"/>
      </g>
     </g>
    </g>
    <g stroke="null" id="Group_7">
     <g stroke="null" id="Group_6">
      <path stroke="null" fill="#447575" d="m558.62591,1053.76382s3.03373,-5.65777 9.16703,-7.34362s16.71391,3.54658 16.71391,3.54658a28.55743,28.83257 0 0 1 -14.36126,6.91464c-9.26445,1.69769 -11.51968,-3.1176 -11.51968,-3.1176z" id="Path_14"/>
      <path stroke="null" fill="#447575" d="m567.18763,1036.9818c-0.0442,-0.21039 4.42024,-7.72251 12.77809,-10.62243s17.96871,-0.18216 17.96871,-0.18216s-2.75769,5.59857 -13.75956,10.46578s-16.98724,0.33881 -16.98724,0.33881z" id="Path_15"/>
      <path stroke="null" fill="#447575" d="m583.7094,1014.73234a21.47513,21.68204 0 0 1 14.59219,-7.5531c9.40428,-0.69766 13.7767,3.44184 13.7767,3.44184s-2.32649,4.18048 -13.79384,6.49842s-14.57505,-2.38716 -14.57505,-2.38716z" id="Path_16"/>
      <path stroke="null" fill="#447575" d="m594.91965,1002.90039a42.98545,43.3996 0 0 0 19.55909,-4.05753c9.85623,-4.76885 12.97655,-15.89221 12.97655,-15.89221s-11.62071,-1.18401 -21.08814,5.78528s-11.44751,14.16446 -11.44751,14.16446z" id="Path_17"/>
      <path stroke="null" fill="#447575" d="m586.86851,1006.54624s7.7715,-6.01115 10.25224,-11.18438s3.83658,-13.26461 3.83658,-13.26461a23.32532,23.55005 0 0 0 -13.67387,10.52042c-5.30428,8.72254 -0.41496,13.92856 -0.41496,13.92856z" id="Path_18"/>
      <path stroke="null" fill="#447575" d="m570.29352,1023.35924a42.1041,42.50976 0 0 0 8.00694,-15.26559c2.80459,-9.50855 -1.18715,-19.10271 -1.18715,-19.10271s-8.90272,7.21338 -10.65908,16.86583s3.83929,17.50247 3.83929,17.50247z" id="Path_19"/>
      <path stroke="null" fill="#447575" d="m555.39642,1048.12884s3.584,-6.51117 4.92721,-17.76841s-5.93575,-24.33878 -5.93575,-24.33878s-9.5856,14.35481 -8.26765,24.74408s9.27618,17.36312 9.27618,17.36312z" id="Path_20"/>
      <g stroke="null" id="Group_5">
       <path stroke="null" fill="#447575" d="m575.12692,1049.98137a124.63984,125.8407 0 0 0 -17.86136,3.51288a132.14612,133.41931 0 0 1 7.13643,-14.22639a114.76648,115.87221 0 0 1 25.46237,-11.16526a114.45886,115.56163 0 0 0 -24.00098,8.69704a132.41224,133.68799 0 0 1 15.19569,-20.37051a119.65851,120.81137 0 0 1 22.42233,-6.76163a118.94676,120.09277 0 0 0 -20.81931,5.02386a132.35721,133.63243 0 0 1 37.15434,-27.74055a132.9147,134.19529 0 0 0 -34.27217,23.55096a128.62527,129.86453 0 0 1 11.15614,-21.81501a129.63832,130.88734 0 0 0 -12.47319,22.96988c0.09652,-0.05738 -9.48637,10.07505 -13.74964,15.76288a130.93372,132.19522 0 0 1 5.39449,-31.62867a131.4452,132.71163 0 0 0 -6.55819,33.20341a133.84115,135.13066 0 0 0 -12.59136,21.11462a133.09512,134.37745 0 0 1 -3.20151,-27.39445a133.49114,134.77728 0 0 0 1.88356,30.22971a134.30031,135.59425 0 0 0 -6.51399,17.56804q1.02838,0.59565 2.06398,1.18401a132.34098,133.61603 0 0 1 5.47839,-16.21189a117.98513,119.12188 0 0 1 18.69399,-5.50293z" id="Path_21"/>
      </g>
     </g>
    </g>
    <g stroke="null" id="Group_11">
     <g stroke="null" id="Group_8">
      <path stroke="null" fill="#447575" d="m518.78695,1129.08082c0.06134,0.051 -13.85428,1.01825 -27.77262,3.0666c-14.10957,1.7405 -28.22186,4.56483 -32.98398,1.24322c-9.79939,-6.68695 -1.95032,-14.91585 -1.83756,-14.9368c-0.58906,-1.27509 -40.75909,2.89264 -44.53794,-3.44639c-4.5321,-7.72342 7.49185,-14.23459 7.64701,-14.13713c-0.70994,-1.34978 -43.5709,7.74163 -49.11514,0.46541c-6.38769,-8.7781 8.00243,-13.06879 6.62133,-13.79468c-0.81188,-0.439 -14.21783,0.01913 -27.31616,0.91078c-13.11908,0.60112 -25.92694,1.6394 -26.03609,-4.37175c-0.37888,-13.19812 43.62864,-19.58178 43.66111,-18.39776c0.12359,-0.12113 -14.53626,-4.73606 -9.86344,-12.15436c5.32233,-8.43018 43.25878,4.14496 42.6634,4.91821c0.41045,-0.0592 -17.74319,-17.42232 -0.57553,-19.61821c19.00431,-2.9145 54.38244,30.58947 53.07531,31.08311c0.67927,-0.0255 -18.93485,-25.80059 1.19437,-25.91079c10.4489,-0.00455 24.06413,11.70899 33.21041,23.66116a120.54345,121.70485 0 0 1 14.49838,23.95899c0.45104,-0.01913 -13.45556,-23.88066 -0.6919,-19.06445c6.6493,2.45364 12.65451,16.94871 15.38062,30.44466a130.99145,132.25351 0 0 1 2.77843,26.0802z" id="Path_22"/>
      <path stroke="null" fill="#6da681" d="m464.7915,1126.8239a218.93701,221.0464 0 0 1 29.37653,-12.69355a232.21847,234.45582 0 0 0 -24.27792,-13.55514a201.50956,203.45103 0 0 0 -47.90995,9.1579a200.8375,202.7725 0 0 1 43.37334,-11.28821a232.57931,234.82013 0 0 0 -41.99134,-14.45044a210.11909,212.14352 0 0 0 -39.18494,12.52414a208.92383,210.93673 0 0 1 35.16073,-13.45132a232.54683,234.78734 0 0 0 -81.10412,-3.26879a233.46787,235.71725 0 0 1 72.81753,0.05465a225.89483,228.07124 0 0 0 -37.53773,-20.5718a227.54836,229.74071 0 0 1 40.57867,20.93702c-0.19575,0.01275 -0.39151,0.0255 -0.58636,0.04007a234.64058,236.90126 0 0 1 35.97441,9.15608a230.01016,232.22622 0 0 0 -38.76728,-40.56889a230.91946,233.14429 0 0 1 41.99315,41.7019a234.97255,237.23643 0 0 1 38.93597,18.12453a233.72045,235.97226 0 0 0 -22.13276,-42.98883a234.44663,236.70544 0 0 1 26.82181,45.79313a235.74654,238.01788 0 0 1 26.6414,19.02802q-0.91291,1.8926 -1.84116,3.77336a232.66861,234.91029 0 0 0 -23.81515,-18.09721a207.57069,209.57056 0 0 0 -32.52482,10.64338z" id="Path_23"/>
     </g>
     <g stroke="null" id="Group_9">
      <path stroke="null" fill="#6da681" d="m525.84399,1127.05707c0.03969,0.07013 -13.30401,-4.03476 -27.032,-7.1305c-13.79745,-3.44913 -27.97829,-5.89002 -31.25739,-10.70713c-6.79544,-9.77358 3.44508,-14.63806 3.55694,-14.61894c-0.09923,-1.40442 -39.10285,-11.96401 -40.39555,-19.24661c-1.50739,-8.84823 12.02395,-10.60513 12.13671,-10.45849c-0.18763,-1.51554 -43.44551,-8.44293 -46.05435,-17.23925c-2.86955,-10.5013 12.08799,-9.33003 11.05691,-10.50585c-0.60079,-0.70039 -13.29138,-5.10037 -25.84485,-8.97756c-12.47138,-4.15771 -24.80745,-7.79719 -22.78406,-13.45314c4.30477,-12.46676 47.67721,-2.59755 47.29382,-1.47911c0.15967,-0.0674 -11.90758,-9.65883 -4.92541,-14.90492c7.95011,-5.96197 38.95581,19.43879 38.12499,19.95155c0.40323,0.09108 -10.42635,-22.66386 6.38769,-18.5362c18.7824,4.11946 40.01306,48.14932 38.61663,48.14203c0.64499,0.22041 -8.58248,-30.92008 10.26397,-23.77865c9.76421,3.75606 18.34939,19.59908 22.67671,34.05681a120.5191,121.68026 0 0 1 5.08868,27.60302c0.42939,0.14481 -4.14059,-27.15492 6.08369,-18.06077c5.34758,4.68597 5.84012,20.38964 3.62189,33.9803a130.92379,132.1852 0 0 1 -6.61502,25.36341z" id="Path_24"/>
      <path stroke="null" fill="#84b88f" d="m476.19121,1105.51801a218.78456,220.89247 0 0 1 31.92854,-1.28875a232.42234,234.66165 0 0 0 -17.89474,-21.40334a201.5267,203.46833 0 0 0 -47.99114,-8.68247a200.82577,202.76066 0 0 1 44.50547,5.06121a232.71913,234.9613 0 0 0 -34.13325,-28.61308a210.24448,212.27012 0 0 0 -41.03242,-2.39808a208.76867,210.78008 0 0 1 37.59907,0.0847a232.46835,234.7081 0 0 0 -74.62351,-32.24163a233.39931,235.64803 0 0 1 68.01752,26.25507a225.89302,228.06942 0 0 0 -27.81682,-32.72707a227.70532,229.89918 0 0 1 30.52399,34.16519l-0.5629,-0.17396a234.52421,236.78377 0 0 1 30.37875,21.5017a229.8974,232.11238 0 0 0 -21.8946,-51.8571a230.84459,233.0687 0 0 1 24.51247,54.07394a235.02126,237.28561 0 0 1 29.98183,30.94741a233.67174,235.92308 0 0 0 -5.50274,-48.13019a234.3447,236.60252 0 0 1 8.8955,52.43818a235.75737,238.02881 0 0 1 18.17078,27.36531q-1.52182,1.43812 -3.05267,2.86258a232.89684,235.14072 0 0 0 -15.86053,-25.47999a207.63745,209.63796 0 0 0 -34.14858,-1.75963z" id="Path_25"/>
     </g>
     <g stroke="null" id="Group_10">
      <path stroke="null" fill="#84b88f" d="m530.95072,1123.06419c-0.00812,0.07924 -8.58518,-11.02591 -18.0508,-21.52903c-9.32309,-10.83829 -19.53293,-21.06635 -19.47159,-26.90901c0.00992,-11.94215 11.15523,-9.97487 11.23732,-9.89381c0.72167,-1.20769 -25.1728,-32.49482 -22.08224,-39.20181c3.80501,-8.11323 15.87677,-1.69314 15.88489,-1.50734c0.70994,-1.34978 -30.73057,-32.13597 -27.85651,-40.84577c3.63452,-10.25539 15.20652,-0.61113 15.02971,-2.17494c-0.09021,-0.92262 -7.96725,-11.88751 -16.02832,-22.35055c-7.83194,-10.64338 -15.8479,-20.78219 -10.97482,-24.23495c10.6221,-7.69974 40.48395,25.55923 39.53135,26.25142c0.16869,0.03643 -4.23982,-14.81749 4.46083,-15.05338c9.90043,-0.26139 20.79586,38.52601 19.82431,38.45861c0.27784,0.30967 4.37874,-24.59107 15.78656,-11.45397c13.01985,14.27648 5.30519,62.62344 4.16855,61.80556c0.40143,0.55558 10.59233,-30.27707 21.94151,-13.49321c5.84824,8.74349 3.84651,26.68586 -0.84977,41.02701a120.44693,121.6074 0 0 1 -11.56117,25.53737c0.27063,0.36431 12.08078,-24.6193 15.26515,-11.24358c1.70495,6.93832 -6.83603,20.07087 -16.39186,29.90183a130.94093,132.2025 0 0 1 -19.8631,16.90955z" id="Path_26"/>
      <path stroke="null" fill="#447575" d="m502.60166,1076.61168a218.90544,221.01452 0 0 1 26.85429,17.48698a232.63073,234.87204 0 0 0 -2.44917,-27.89811a201.49783,203.43919 0 0 0 -34.31637,-34.97397a200.8826,202.81804 0 0 1 33.52524,29.9838a232.65598,234.89754 0 0 0 -11.62432,-43.22564a210.12451,212.14898 0 0 0 -32.20458,-25.78875a208.99058,211.00413 0 0 1 30.71433,21.89425a232.49992,234.73998 0 0 0 -42.68415,-69.7002a233.44531,235.69448 0 0 1 40.68422,60.97219a225.91558,228.09219 0 0 0 -4.10902,-42.92326a227.62954,229.82268 0 0 1 5.50906,45.67381l-0.36084,-0.46905a234.79033,237.05245 0 0 1 12.6085,35.22716a229.9425,232.15792 0 0 0 11.62883,-55.13591a230.90323,233.1279 0 0 1 -10.7529,58.47301a234.89226,237.15537 0 0 1 6.89918,42.72471a233.64107,235.89212 0 0 0 22.91306,-42.56987a234.33748,236.59524 0 0 1 -22.59462,48.06188a235.78533,238.05704 0 0 1 -0.72167,32.93837q-2.06218,0.29418 -4.12796,0.57106a232.51436,234.75455 0 0 0 1.53355,-30.05575a207.51206,209.51136 0 0 0 -26.92465,-21.26672z" id="Path_27"/>
     </g>
    </g>
    <g stroke="null" id="Group_14">
     <path stroke="null" fill="#6da681" d="m560.9479,1111.15027s8.58879,-7.24617 19.68178,-5.98292s25.0041,16.73286 25.0041,16.73286s-11.67123,5.1787 -27.88538,1.88258s-16.80051,-12.63252 -16.80051,-12.63252z" id="Path_28"/>
     <path stroke="null" fill="#6da681" d="m585.70482,1089.3635c0.06315,-0.37524 12.1782,-9.70983 27.6815,-8.97301s29.4478,11.46946 29.4478,11.46946s-8.09535,7.33087 -29.18258,8.07316s-27.94672,-10.56961 -27.94672,-10.56961z" id="Path_29"/>
     <path stroke="null" fill="#6da681" d="m626.96818,1063.86802a37.71815,38.08155 0 0 1 28.66839,-2.77424c15.79738,5.02113 20.27445,14.63988 20.27445,14.63988s-6.48241,5.29983 -26.6883,1.57474s-22.25454,-13.44039 -22.25454,-13.44039z" id="Path_30"/>
     <path stroke="null" fill="#6da681" d="m652.86716,1051.89672a75.50485,76.23232 0 0 0 34.53016,6.1842c19.15225,-1.32883 31.3927,-17.44144 31.3927,-17.44144s-18.21047,-9.53951 -38.13942,-4.36719s-27.78344,15.62444 -27.78344,15.62444z" id="Path_31"/>
     <path stroke="null" fill="#6da681" d="m637.381,1052.57253s16.54792,-4.72604 23.9216,-11.53959s14.78344,-19.13914 14.78344,-19.13914a40.96837,41.36309 0 0 0 -29.07794,8.21797c-14.26203,10.76269 -9.62709,22.46075 -9.62709,22.46075z" id="Path_32"/>
     <path stroke="null" fill="#6da681" d="m599.52483,1069.15783a73.91808,74.63025 0 0 0 22.87698,-19.67286c10.69066,-13.68448 10.33794,-31.95837 10.33794,-31.95837s-19.16849,5.94466 -28.23539,20.54994s-4.97953,31.08129 -4.97953,31.08129z" id="Path_33"/>
     <path stroke="null" fill="#6da681" d="m559.29617,1099.83838s10.03303,-8.28173 19.45716,-25.77508s5.94838,-43.61545 5.94838,-43.61545s-24.86518,17.15091 -29.39096,34.97397s3.98543,34.41657 3.98543,34.41657z" id="Path_34"/>
     <g stroke="null" id="Group_13">
      <g stroke="null" id="Group_12">
       <path stroke="null" fill="#84b88f" d="m590.31179,1115.78159a218.73946,220.84693 0 0 0 -31.40713,-5.95924a232.15533,234.39206 0 0 1 20.78503,-18.54713a201.41574,203.35631 0 0 1 48.73626,-1.54833a200.88711,202.82259 0 0 0 -44.76166,-1.52374a232.71462,234.95674 0 0 1 37.88774,-23.29867a210.04422,212.06792 0 0 1 40.94221,3.64312a208.9996,211.01324 0 0 0 -37.21117,-5.43463a232.46294,234.70264 0 0 1 78.47183,-20.94795a233.41464,235.66351 0 0 0 -71.07469,15.99421a225.92911,228.10585 0 0 1 32.22713,-28.30068a227.68728,229.88097 0 0 0 -35.11742,29.32713c0.19395,-0.03006 -21.95775,10.23535 -32.56993,16.72557a230.03271,232.24899 0 0 1 29.12665,-48.09376a230.92578,233.15067 0 0 0 -32.03589,49.90257a235.02848,237.2929 0 0 0 -34.11881,26.21863a233.90538,236.15897 0 0 1 12.37486,-46.81411a234.46016,236.7191 0 0 0 -16.34766,50.57472a235.62566,237.89583 0 0 0 -21.92076,24.40891q1.29901,1.64669 2.60704,3.27881a232.86798,235.11158 0 0 1 19.36154,-22.88245a207.58152,209.58149 0 0 1 34.04484,3.27699z" id="Path_35"/>
      </g>
     </g>
    </g>
   </g>
   <g stroke="null" id="Group_23">
    <g stroke="null" id="Group_17">
     <path stroke="null" fill="#447575" d="m1053.12508,1056.35865s-6.85046,-12.77005 -20.69122,-16.5762s-37.72356,8.00485 -37.72356,8.00485s11.50254,11.77639 32.41386,15.60804s26.00091,-7.03669 26.00091,-7.03669z" id="Path_36"/>
     <path stroke="null" fill="#447575" d="m1033.80052,1018.4793c0.10103,-0.47725 -9.98071,-17.43051 -28.83798,-23.9772s-40.55702,-0.41349 -40.55702,-0.41349s6.22441,12.63435 31.05351,23.62291s38.34149,0.76779 38.34149,0.76779z" id="Path_37"/>
     <path stroke="null" fill="#447575" d="m996.50905,968.26343a48.46022,48.92712 0 0 0 -32.93257,-17.04708c-21.22435,-1.57292 -31.09321,7.76622 -31.09321,7.76622s5.24926,9.43568 31.132,14.66903s32.89378,-5.38818 32.89378,-5.38818z" id="Path_38"/>
     <path stroke="null" fill="#447575" d="m971.20817,941.55844a96.98991,97.92437 0 0 1 -44.14102,-9.1579c-22.24642,-10.76451 -29.29264,-35.86926 -29.29264,-35.86926s26.23185,-2.66585 47.59693,13.05695s25.83673,31.97021 25.83673,31.97021z" id="Path_39"/>
     <path stroke="null" fill="#447575" d="m989.38255,949.78552s-17.54022,-13.57063 -23.14129,-25.24319s-8.66005,-29.93735 -8.66005,-29.93735s18.88884,4.06026 30.86227,23.74678s0.93907,31.43376 0.93907,31.43376z" id="Path_40"/>
     <path stroke="null" fill="#447575" d="m1026.79399,987.73226s-11.73979,-12.99046 -18.07335,-34.453s2.6783,-43.11725 2.6783,-43.11725s20.09403,16.28202 24.05601,38.07062s-8.66096,39.49963 -8.66096,39.49963z" id="Path_41"/>
     <path stroke="null" fill="#447575" d="m1060.41487,1043.6387s-8.08813,-14.69726 -11.12186,-40.10348s13.40144,-54.9319 13.40144,-54.9319s21.6339,32.39464 18.66152,55.8445s-20.9411,39.19088 -20.9411,39.19088z" id="Path_42"/>
     <g stroke="null" id="Group_16">
      <path stroke="null" fill="#447575" d="m1015.88322,1047.82007a281.0251,283.73268 0 0 1 40.30263,7.92925a298.51661,301.39271 0 0 0 -16.10229,-32.10865a258.85446,261.34843 0 0 0 -57.47209,-25.19856a258.07325,260.55969 0 0 1 54.16955,19.62732a298.88285,301.76248 0 0 0 -34.29472,-45.97801a270.0999,272.70222 0 0 0 -50.6072,-15.26104a268.37149,270.95716 0 0 1 46.98982,11.34013a298.74934,301.62769 0 0 0 -83.86181,-62.61069a299.95544,302.8454 0 0 1 77.35414,53.15314a290.21739,293.01353 0 0 0 -25.18091,-49.23405a292.58898,295.40797 0 0 1 28.1524,51.84162c-0.2165,-0.12751 21.41108,22.74219 31.03186,35.57872a295.43958,298.28604 0 0 0 -12.1782,-71.38788a296.69709,299.55566 0 0 1 14.80058,74.94265a301.95627,304.86551 0 0 1 28.41581,47.65476a300.27929,303.17237 0 0 0 7.22483,-61.83106a301.34105,304.24436 0 0 1 -4.24794,68.2302a302.84122,305.75899 0 0 1 14.69954,39.649q-2.32288,1.34522 -4.65568,2.66768a299.00193,301.88271 0 0 0 -12.36674,-36.59971a266.82171,269.39244 0 0 0 -42.17357,-12.40483z" id="Path_43"/>
     </g>
    </g>
    <g stroke="null" id="Group_18">
     <path stroke="null" fill="#447575" d="m1056.90932,1132.07911c-0.07938,0.0674 17.80273,1.30788 35.68664,3.94095c18.13199,2.23688 36.26398,5.86451 42.38556,1.59842c12.59316,-8.59321 2.506,-19.16828 2.36257,-19.19652c0.75685,-1.6394 52.37439,3.71598 57.23033,-4.42912c5.82479,-9.92751 -9.62709,-18.29211 -9.82736,-18.16643c0.91291,-1.73048 55.99086,9.95119 63.11376,0.59838c8.20901,-11.28001 -10.28382,-16.79206 -8.5085,-17.72561c1.0383,-0.56468 18.27091,0.02368 35.10209,1.17309c16.85824,0.77416 33.31595,2.10572 33.45668,-5.61769c0.48713,-16.95782 -56.06393,-25.16486 -56.10994,-23.64477c-0.15967,-0.15483 18.68046,-6.08857 12.67525,-15.61806c-6.84054,-10.83282 -55.59034,5.32533 -54.82356,6.32628c-0.52592,-0.07651 22.7994,-22.3888 0.73971,-25.2104c-24.41955,-3.7342 -69.88123,39.30746 -68.19793,39.94227c-0.87412,-0.0337 24.32934,-33.15241 -1.53355,-33.2954c-13.42579,-0.00455 -30.92091,15.047 -42.67423,30.40276a154.75969,156.25075 0 0 0 -18.63085,30.78893c-0.58185,-0.0255 17.28944,-30.68692 0.88946,-24.49999c-8.54639,3.15221 -16.26196,21.77949 -19.76567,39.12257a168.25043,169.87147 0 0 0 -3.57047,33.51034z" id="Path_44"/>
     <path stroke="null" fill="#84b88f" d="m1126.29353,1129.18009a281.39676,284.10792 0 0 0 -37.74882,-16.31208a298.61854,301.49563 0 0 1 31.19244,-17.41959a258.81837,261.312 0 0 1 61.56307,11.77457a258.12196,260.60887 0 0 0 -55.73016,-14.50418a298.97216,301.85265 0 0 1 53.95936,-18.56808a269.88249,272.48272 0 0 1 50.35281,16.09349a268.4617,271.04824 0 0 0 -45.17933,-17.2857a298.74844,301.62678 0 0 1 104.21654,-4.19961a299.99513,302.88548 0 0 0 -93.57099,0.07013a290.16957,292.96526 0 0 1 48.23651,-26.43358a292.41668,295.23401 0 0 0 -52.14075,26.90445c0.25168,0.01639 0.50246,0.0337 0.75415,0.051a301.38795,304.29172 0 0 0 -46.22665,11.76637a295.48108,298.32793 0 0 1 49.81065,-52.13671a296.74851,299.60758 0 0 0 -53.96026,53.58667a301.96619,304.87553 0 0 0 -50.03798,23.28956a300.30545,303.19879 0 0 1 28.44287,-55.23974a301.16514,304.06676 0 0 0 -34.46702,58.8437a302.85024,305.7681 0 0 0 -34.23067,24.44808q1.17272,2.42905 2.36708,4.84899a299.04252,301.92369 0 0 1 30.60157,-23.25678a266.84696,269.41794 0 0 1 41.79559,13.67901z" id="Path_45"/>
    </g>
    <g stroke="null" id="Group_21">
     <path stroke="null" fill="#6da681" d="m1105.76018,1093.33633s6.84866,-12.77005 20.69212,-16.5762s37.72356,8.00303 37.72356,8.00303s-11.50254,11.77639 -32.41386,15.60895s-26.00182,-7.03578 -26.00182,-7.03578z" id="Path_46"/>
     <path stroke="null" fill="#6da681" d="m1125.08199,1055.45606c-0.09923,-0.47543 9.98071,-17.42869 28.83979,-23.97629s40.55522,-0.41349 40.55522,-0.41349s-6.2199,12.63435 -31.05171,23.62291s-38.3433,0.76688 -38.3433,0.76688z" id="Path_47"/>
     <path stroke="null" fill="#6da681" d="m1162.37438,1005.24112a48.46113,48.92803 0 0 1 32.93257,-17.0489c21.22435,-1.57292 31.0923,7.76805 31.0923,7.76805s-5.25106,9.43568 -31.132,14.66356s-32.89287,-5.38271 -32.89287,-5.38271z" id="Path_48"/>
     <path stroke="null" fill="#6da681" d="m1187.67616,978.53613a97.00434,97.93895 0 0 0 44.14102,-9.15972c22.24642,-10.76269 29.29173,-35.86926 29.29173,-35.86926s-26.23095,-2.6695 -47.59693,13.05968s-25.83583,31.9693 -25.83583,31.9693z" id="Path_49"/>
     <path stroke="null" fill="#6da681" d="m1169.50178,986.76227s17.54112,-13.57063 23.14129,-25.24319s8.66005,-29.93735 8.66005,-29.93735s-18.88884,4.06026 -30.86047,23.74678s-0.94088,31.43376 -0.94088,31.43376z" id="Path_50"/>
     <path stroke="null" fill="#6da681" d="m1132.09124,1024.71086s11.73979,-12.99046 18.07155,-34.45391s-2.6765,-43.11725 -2.6765,-43.11725s-20.09584,16.28293 -24.05601,38.07062s8.66096,39.50054 8.66096,39.50054z" id="Path_51"/>
     <path stroke="null" fill="#6da681" d="m1098.46769,1080.61548s8.08903,-14.69726 11.12186,-40.10166s-13.39692,-54.93372 -13.39692,-54.93372s-21.6321,32.39464 -18.66152,55.8445s20.93658,39.19088 20.93658,39.19088z" id="Path_52"/>
     <g stroke="null" id="Group_20">
      <g stroke="null" id="Group_19">
       <path stroke="null" fill="#84b88f" d="m1143.00109,1084.79685a281.21995,283.9294 0 0 0 -40.30444,7.92925a298.65643,301.53388 0 0 1 16.10049,-32.10865a258.86799,261.36209 0 0 1 57.47029,-25.19856a258.0525,260.53874 0 0 0 -54.16774,19.62732a299.05786,301.93918 0 0 1 34.29292,-45.97801a270.11072,272.71314 0 0 1 50.6072,-15.26104a268.49869,271.08558 0 0 0 -46.99162,11.34104a298.76468,301.64317 0 0 1 83.86361,-62.61069a300.00415,302.89458 0 0 0 -77.35414,53.15223a290.28143,293.07819 0 0 1 25.18272,-49.23497a292.5105,295.32873 0 0 0 -28.1533,51.84344c0.21831,-0.12933 -21.40928,22.74036 -31.03186,35.57781a295.5352,298.38258 0 0 1 12.1782,-71.38788a296.71513,299.57388 0 0 0 -14.80058,74.94265a302.09429,305.00486 0 0 0 -28.41581,47.65476a300.36679,303.26072 0 0 1 -7.22483,-61.82924a301.23099,304.13325 0 0 0 4.24974,68.22838a302.77627,305.69341 0 0 0 -14.70586,39.65082q2.32288,1.34249 4.65568,2.66768a299.14987,302.03208 0 0 1 12.36584,-36.60153a266.7739,269.34417 0 0 1 42.18349,-12.40483z" id="Path_53"/>
      </g>
     </g>
    </g>
    <g stroke="null" id="Group_22">
     <path stroke="null" fill="#84b88f" d="m1059.98727,1127.57894c0.02977,0.0674 -11.618,-4.62221 -23.68345,-8.43565c-12.10333,-4.13676 -24.62703,-7.39827 -27.2025,-11.96128c-5.35841,-9.27174 4.17306,-12.85111 4.2732,-12.82561c0.01443,-1.26507 -34.13595,-13.68265 -34.75298,-20.30221c-0.6919,-8.03946 11.55937,-8.58866 11.64777,-8.44658c-0.05413,-1.37346 -38.28737,-10.85832 -39.96886,-18.93512c-1.79065,-9.62422 11.52329,-7.43925 10.68434,-8.57226c-0.48532,-0.67307 -11.52599,-5.57489 -22.48186,-10.00037c-10.86115,-4.67139 -21.63661,-8.86645 -19.40664,-13.77829c4.78107,-10.83829 42.90065,1.28784 42.47216,2.26056c0.14704,-0.04918 -9.94914,-9.555 -3.30255,-13.72455c7.56492,-4.73606 33.44766,20.36596 32.66555,20.76579c0.35542,0.11294 -7.65513,-21.09185 7.10125,-16.12081c16.51635,5.11312 32.2587,46.1629 31.00931,46.04997c0.5611,0.24591 -5.38728,-28.34713 10.96219,-20.52261c8.46701,4.10489 14.97468,18.94423 17.77927,32.22705a108.36345,109.40749 0 0 1 2.5042,25.11113c0.37437,0.16303 -1.68871,-24.63752 6.79183,-15.71734c4.44189,4.60308 3.7148,18.70652 0.72167,30.71242a117.79569,118.93061 0 0 1 -7.8139,22.21575z" id="Path_54"/>
     <path stroke="null" fill="#447575" d="m1017.11098,1104.52073a196.65541,198.55012 0 0 1 28.69726,1.2669a208.98246,210.99593 0 0 0 -14.43342,-20.52717a181.13948,182.8847 0 0 0 -42.34767,-11.41754a180.48817,182.22711 0 0 1 39.49075,7.90831a209.05373,211.06789 0 0 0 -28.44557,-28.2178a188.89745,190.71741 0 0 0 -36.57791,-5.26067a187.6688,189.47693 0 0 1 33.67318,2.92634a208.98968,211.00322 0 0 0 -64.44524,-34.53588a209.79254,211.81382 0 0 1 58.97317,28.6741a203.06025,205.01666 0 0 0 -22.47735,-31.42192a204.69934,206.67155 0 0 1 24.80023,32.91742l-0.49164,-0.19946a210.74334,212.77378 0 0 1 25.61301,21.56455a206.70108,208.69257 0 0 0 -15.75318,-48.11106a207.52469,209.52411 0 0 1 17.93443,50.29511a211.14116,213.17543 0 0 1 24.55396,29.99291a210.13082,212.15536 0 0 0 -1.35313,-43.5353a210.74785,212.77833 0 0 1 4.06391,47.65385a211.8935,213.93502 0 0 1 14.24128,25.89166q-1.4695,1.17309 -2.94712,2.33251a209.20979,211.22545 0 0 0 -12.31352,-24.02639a186.62509,188.42315 0 0 0 -30.45543,-4.17046z" id="Path_55"/>
    </g>
   </g>
   <path stroke="null" fill="#e2bbaf" d="m1317.47507,1120.28178l-1037.18952,0a15.36167,15.50968 0 1 0 0,31.01936l1037.18952,0a15.36167,15.50968 0 1 0 0,-31.01936z" id="Path_56"/>
   <g stroke="null" id="Group_55">
    <g stroke="null" id="Group_25">
     <path stroke="null" fill="#242838" d="m619.42998,782.1062s-8.92527,-1.50097 -11.15614,3.75424s6.19735,17.02249 3.71841,21.27674s-9.66769,-2.50282 -10.90806,1.2505s5.95379,18.02252 20.32948,11.51409s19.83333,-18.52345 15.3707,-28.03382s-17.35439,-9.76174 -17.35439,-9.76174z" id="Path_57"/>
     <path stroke="null" fill="#242838" d="m653.14286,770.34074s10.90806,4.25517 7.43682,16.77202s-8.42912,16.01972 -17.60246,17.77206s-20.0814,-6.50753 -17.60246,-16.27018s27.76811,-18.2739 27.76811,-18.2739z" id="Path_58"/>
     <g stroke="null" id="Group_24">
      <path stroke="null" fill="#242838" d="m760.2109,1142.48652a1.84928,1.8671 0 0 0 0.36986,-0.03643a1.90972,1.92812 0 0 0 1.50559,-2.2642l-44.71114,-229.69881a1.90882,1.92721 0 1 0 -3.74638,0.7432l44.71385,229.6979a1.90792,1.9263 0 0 0 1.86823,1.55835z" id="Path_59"/>
     </g>
     <path stroke="null" fill="#e7b39e" d="m702.83534,903.15893s10.89543,0.54647 15.11631,1.78695s8.58067,13.06241 6.12789,13.19903s-6.53564,-6.87457 -8.57887,-7.28624a16.14018,16.29568 0 0 0 -4.35799,-0.13753s6.53744,5.49929 3.5416,6.05031s-7.48734,-5.22515 -10.07724,-6.32628s-5.99258,-3.16223 -6.12789,-4.39907s4.35619,-2.88717 4.35619,-2.88717z" id="Path_60"/>
     <path stroke="null" fill="#f471b6" d="m641.68813,816.60838s12.04018,1.52829 17.55646,9.66976s11.03526,34.27904 20.79586,47.98993s25.04019,28.28155 25.04019,28.28155l-6.79002,6.42829s-26.73792,-14.99691 -36.07544,-30.85177s-20.52704,-61.51775 -20.52704,-61.51775z" id="Path_61"/>
     <path stroke="null" fill="#242838" d="m645.77279,1119.11406s30.07385,13.1289 26.82632,16.10806s-40.18717,-1.50734 -41.07211,-3.59303s1.5552,-14.29925 1.5552,-14.29925l12.69059,1.78422z" id="Path_62"/>
     <path stroke="null" fill="#2c4175" d="m664.03017,933.32762s3.56055,76.08659 1.78072,95.3751s-17.08737,91.89774 -17.08737,91.89774l-17.80002,-2.14398s-0.12178,-40.46233 3.43876,-62.9668s3.56055,-16.61081 3.56055,-32.15055s-26.10916,-85.19622 -21.36147,-91.62451s47.46883,1.61299 47.46883,1.61299z" id="Path_63"/>
     <path stroke="null" fill="#e5e5e6" d="m664.30621,939.51181c-0.16869,-3.88994 -0.27694,-6.18602 -0.27694,-6.18602s-42.72204,-8.03764 -47.46883,-1.60844s21.36147,76.08659 21.36147,91.62451s0,9.64425 -3.56055,32.15055s-3.43876,62.9668 -3.43876,62.9668l7.10666,0.85704c3.70849,-22.75129 11.93103,-73.22037 14.5101,-89.21731c3.3675,-20.88328 -3.84831,-56.33723 -5.77337,-72.36423c-1.43703,-11.98951 11.12095,-16.63996 17.54022,-18.22289z" id="Path_64"/>
     <path stroke="null" fill="#242838" d="m592.11563,1117.96465c0,0.71952 8.54639,14.38122 3.7987,15.34027s-19.23164,0.71952 -18.99439,-2.15673s4.7486,-14.62258 4.7486,-14.62258l10.44709,1.43903z" id="Path_65"/>
     <path stroke="null" fill="#304783" d="m643.67273,920.82989s-10.51204,82.68064 -18.18702,101.93636c-4.09909,10.29182 -26.83535,94.83774 -31.36022,96.64564s-14.84297,-2.0611 -14.84297,-2.0611s3.84921,-48.3506 11.32843,-65.81754s9.32038,-17.2183 9.60815,-38.42036s-3.33773,-48.0892 -3.82756,-62.8566c-0.70363,-21.37146 4.74409,-30.05575 4.74409,-30.05575s32.65562,2.74691 42.53711,0.62935z" id="Path_66"/>
     <path stroke="null" fill="#e5e5e6" d="m626.0829,932.47968s4.02783,-4.69416 8.73222,-10.88747c-13.43391,0.3124 -33.6813,-1.38621 -33.6813,-1.38621s-5.44681,8.68065 -4.74409,30.05575c0.48532,14.76648 4.11533,41.65636 3.82756,62.8566s-2.12893,20.95341 -9.60815,38.42036s-11.32663,65.81208 -11.32663,65.81208a51.57514,52.07205 0 0 0 7.95192,2.16219c3.82125,-15.30111 16.85824,-67.06987 22.97711,-86.01683c7.21671,-22.34144 1.92325,-51.9664 1.44334,-73.82057s14.42801,-27.1959 14.42801,-27.1959z" id="Path_67"/>
     <path stroke="null" fill="#ff95c9" d="m612.06533,817.15029a24.76505,25.00365 0 0 0 -8.69433,15.04518c-0.78662,5.2716 0.33377,10.62061 1.44876,15.8321c2.40226,11.22446 8.72952,26.43176 5.88974,37.9003c-2.19208,11.22537 -13.87954,42.51887 -13.87954,42.51887s11.32212,9.1834 29.94936,9.52312s36.88913,-1.70043 37.61711,-4.08121s-4.16224,-46.60554 -5.224,-60.90206c-0.85789,-11.55325 6.57984,-14.44224 4.86406,-26.2833c-0.73159,-5.04937 -9.44217,-10.97673 -12.87462,-23.68758c-1.99452,-7.36912 -18.58303,-8.02489 -24.28875,-8.41015c-4.33003,-0.29236 -9.27618,-0.8789 -13.0857,1.36617a16.17716,16.33302 0 0 0 -1.72209,1.17855z" id="Path_68"/>
     <path stroke="null" opacity="0.5" fill="#ff95c9" d="m653.02198,922.76712c-15.87677,-3.39994 -25.01403,-25.25503 -24.53682,-39.82478s10.1034,-22.82598 1.44334,-33.02581c-6.63577,-7.81814 -8.46701,-27.03378 -8.95955,-35.58874a14.35404,14.49234 0 0 0 -7.17882,1.6394a16.17446,16.33029 0 0 0 -1.7275,1.17946a24.76505,25.00365 0 0 0 -8.69433,15.04518c-0.78662,5.2716 0.33377,10.62061 1.44876,15.8321c2.40226,11.22446 8.72952,26.43176 5.88974,37.9003c-2.19208,11.22537 -13.87954,42.51887 -13.87954,42.51887s11.32212,9.1834 29.94936,9.52312s36.88913,-1.70043 37.61711,-4.08121c0.18042,-0.59656 0.01263,-3.82528 -0.36084,-8.55041c-4.88752,0.194 -2.53938,-0.75322 -11.0109,-2.56749z" id="Path_69"/>
     <path stroke="null" fill="#e7b39e" d="m634.62478,917.03285s17.84242,9.41474 13.38159,10.23535s-6.89286,-2.04743 -6.89286,0.40803s10.54362,10.6452 7.70384,13.51052s-15.40858,-5.73063 -17.03054,-10.64338s-3.24752,-11.87384 -3.24752,-11.87384l6.08549,-1.63667z" id="Path_70"/>
     <path stroke="null" fill="#ff95c9" d="m613.79374,815.97174s-8.99473,-0.34336 -12.09701,8.74349s-3.4135,43.53986 -0.62064,54.50292s25.75194,41.03521 26.68199,41.66274s9.30775,-1.56654 8.3768,-4.69872s-21.09806,-31.32538 -20.78774,-42.60084s4.03414,-34.76995 3.72292,-43.54168s-2.17764,-13.41215 -5.27632,-14.06791z" id="Path_71"/>
     <path stroke="null" fill="#e7b39e" d="m624.59715,798.04121s-0.05052,11.32829 -1.14746,14.72914s-1.59489,3.69959 -1.59489,6.42009s4.8812,11.26726 14.3784,11.60881s9.49539,-4.76247 5.84373,-8.16424s-5.47839,-5.78163 -4.38325,-12.58516s1.46229,-9.52494 1.46229,-9.52494l-14.55882,-2.4837z" id="Path_72"/>
     <path stroke="null" opacity="0.5" fill="#e7b39e" d="m639.15597,800.52491l-14.55882,-2.4837s-0.03518,7.36275 -0.62064,11.99771a22.94103,23.16206 0 0 0 14.40366,8.16697c-0.99861,-1.98004 -1.29269,-4.38905 -0.68559,-8.15604c1.09243,-6.80262 1.46138,-9.52494 1.46138,-9.52494z" id="Path_73"/>
     <path stroke="null" fill="#e7b39e" d="m641.16041,765.84785s8.95053,0.17032 12.5661,7.14598s2.90473,19.12001 -0.76497,27.838c-3.67692,8.73712 -8.20901,13.27736 -14.06086,11.57693s-15.589,-10.30457 -16.96739,-17.44691s0.7361,-20.69931 5.46305,-25.3707c5.33495,-5.27342 13.76407,-3.74331 13.76407,-3.74331z" id="Path_74"/>
     <path stroke="null" fill="#242838" d="m657.35742,776.35007s-5.45493,14.016 -17.60246,20.7749s-15.86684,4.7561 -19.33718,2.50374s-9.91757,-16.7702 -0.49615,-29.5357s37.18772,-10.51496 37.43579,6.25706z" id="Path_75"/>
    </g>
    <g stroke="null" id="Group_34">
     <path stroke="null" fill="#e7b39e" d="m1127.00033,849.881s-10.99827,22.58735 -11.0957,21.44159c-0.31754,-3.84076 -21.95775,-25.143 -23.86026,-33.46298c-1.19437,-5.22697 1.26292,-20.80131 -0.9517,-20.80131s-4.11984,7.68061 -4.11984,7.68061s-8.55902,-21.44159 -9.82646,-18.24111s2.53487,13.1207 2.53487,13.1207s-9.50802,-14.72094 -9.82555,-11.2026s5.07245,12.80011 5.07245,12.80011s-7.92485,-9.59963 -8.55902,-6.71974s6.97405,11.52046 6.97405,11.52046s-7.29159,-5.7616 -6.97405,-3.20048s15.53217,17.60083 16.48207,18.5617s18.15364,49.78326 31.15004,52.66314s25.67706,-35.19802 25.67706,-35.19802l-12.67796,-8.96208z" id="Path_76"/>
     <path stroke="null" fill="#df922f" d="m1156.60691,813.64288s-17.43197,1.60024 -22.82285,8.31998s-14.26473,34.56229 -13.62966,36.16253s16.7978,12.47769 23.45432,8.96026s12.9982,-53.44277 12.9982,-53.44277z" id="Path_77"/>
     <g stroke="null" id="Group_29">
      <g stroke="null" id="Group_26">
       <path stroke="null" fill="#787080" d="m1113.33731,976.85381l2.31205,-126.89903l51.34871,6.04849l-26.67838,124.02643a7.73451,7.80903 0 0 1 -8.48415,6.12227l-11.63695,-1.36617a7.73271,7.80721 0 0 1 -6.86129,-7.93199zm7.30692,-121.1265l-2.20922,121.22487a2.65304,2.67861 0 0 0 2.35265,2.71868l11.63695,1.36617a2.65395,2.67952 0 0 0 2.91104,-2.09935l25.49033,-118.47978l-40.18175,-4.73059z" id="Path_78"/>
      </g>
      <g stroke="null" id="Group_27">
       <rect stroke="null" x="596.34713" y="1526.06239" fill="#787080" transform="matrix(0.10451242386467707,-0.90464719451447,0.8960144100468604,0.10551936439966692,-322.1509956404734,1501.5661498760658) " height="5.652" width="155.31" id="Rectangle_2"/>
      </g>
      <g stroke="null" id="Group_28">
       <rect stroke="null" x="606.10913" y="1322.28039" fill="#787080" transform="matrix(0.10451242386467707,-0.90464719451447,0.8960144100468604,0.10551936439966692,-131.77338600266376,1346.2996041478282) " height="33.477" width="5.652" id="Rectangle_3"/>
      </g>
      <path stroke="null" fill="#242838" d="m1117.84683,844.57753l48.23651,5.68145a8.09354,8.17152 0 1 1 -1.87544,16.23375l-48.23651,-5.68145a8.09445,8.17243 0 0 1 1.87544,-16.23375z" id="Path_79"/>
      <rect stroke="null" x="591.42013" y="1533.1154" fill="#242838" transform="matrix(0.10451242386467707,-0.90464719451447,0.8960144100468604,0.10551936439966692,-332.40022766162656,1502.7884399554346) " rx="1.931" height="13.804" width="13.114" id="Rectangle_4"/>
     </g>
     <path stroke="null" fill="#724817" d="m1140.42433,1115.12029s2.61606,14.73369 -0.37256,18.13455s-44.5217,5.7279 -44.90238,2.26693c-0.74783,-6.80171 25.81779,-13.97775 28.43836,-17.37769s2.61606,-5.2889 2.61606,-5.2889l14.22053,2.26511z" id="Path_80"/>
     <path stroke="null" fill="#242838" d="m1135.35278,927.70173s-6.36514,68.27938 -6.76567,85.95308s-7.03629,100.21316 -4.25425,102.22143s16.98453,3.41087 18.57582,0.6002s9.94643,-73.09923 11.93374,-82.73893s20.68671,-106.03487 20.68671,-106.03487l-40.17634,-0.00091z" id="Path_81"/>
     <path stroke="null" fill="#724817" d="m1226.16337,1110.91704s0,7.55492 6.36063,12.08879s22.64244,16.77657 11.05691,19.19652c-8.28028,1.73048 -27.8944,-4.8408 -29.0184,-8.24074s-2.2435,-21.15561 -2.2435,-21.15561l13.84436,-1.88896z" id="Path_82"/>
     <path stroke="null" fill="#242838" d="m1156.83513,927.29916s26.2562,85.95217 32.62134,106.83454s17.50053,81.13232 21.48145,83.54224s17.50053,1.60662 18.29888,-3.21323s-8.75026,-53.01744 -11.13719,-83.54224s-15.11811,-104.42826 -15.11811,-104.42826l-46.14637,0.80695z" id="Path_83"/>
     <path stroke="null" fill="#e5e5e6" d="m1202.9815,926.49676l-41.62239,0.72862l2.04053,4.77249c1.44334,-0.48545 19.24066,0 25.49394,22.34144c5.3115,18.9752 27.96476,130.76802 34.6763,164.03154c2.97689,-0.69219 5.34939,-1.96911 5.66692,-3.90087c0.79654,-4.81985 -8.75026,-53.01744 -11.13719,-83.54224s-15.11811,-104.43099 -15.11811,-104.43099z" id="Path_84"/>
     <path stroke="null" fill="#e7b39e" d="m1237.93294,830.47592s25.21429,-9.6907 29.04727,-15.4268c8.51392,-12.75548 20.54327,-56.51301 21.11339,-58.50853s13.1705,-18.72291 11.99237,-19.59999s-6.33086,3.92455 -6.33086,3.92455s7.35112,-12.01046 4.60065,-11.09604s-7.48734,8.51671 -7.48734,8.51671s4.94615,-11.96948 2.38152,-10.97855s-5.82298,9.79453 -5.82298,9.79453s1.76809,-11.62975 -0.04601,-10.33736s-4.5781,14.34206 -4.5781,14.34206s-2.43023,-7.04762 -3.20783,-4.5284s0.19124,7.76531 -0.25168,11.63431a25.15836,25.40075 0 0 1 -1.49476,7.08587c-0.62064,1.5711 -17.28944,39.36939 -21.23247,43.85134s-25.49845,11.2026 -25.38479,15.3676c0.00812,0.56195 6.70162,15.95869 6.70162,15.95869z" id="Path_85"/>
     <path stroke="null" fill="#df922f" d="m1206.87041,850.03584c1.63098,-0.50275 4.33454,-3.29156 10.91528,-7.91013c7.28978,-5.1195 28.84249,-10.88109 28.84249,-10.88109c-0.31573,-8.96026 -6.02235,-24.64025 -6.02235,-24.64025s-18.70031,3.83985 -26.30762,3.83985a131.06001,132.32273 0 0 0 -17.59074,1.73777s-33.43774,-1.73777 -41.67651,1.7824s-12.99549,11.2026 -14.58047,22.4052s-9.50982,96.32504 -6.97405,98.24588s64.97838,3.51926 72.90323,-1.60024c0,0 -4.43738,-39.04242 -2.85421,-54.72333c0.72889,-7.25437 2.27146,-17.92689 3.34495,-28.25605z" id="Path_86"/>
     <path stroke="null" opacity="0.5" fill="#df922f" d="m1243.93455,817.11022c-13.09743,2.13305 -50.08218,9.1078 -56.00349,20.6647c-7.21671,14.08522 -1.92325,64.1071 -13.46819,80.13592c-7.15357,9.92751 -27.04283,11.84014 -41.48798,12.09061c0.01443,2.70411 0.16598,4.36173 0.49434,4.61128c2.53667,1.92084 64.97838,3.51926 72.90323,-1.60024c0,0 -4.43738,-39.04242 -2.85421,-54.72333c0.7334,-7.25163 2.27868,-17.92325 3.35307,-28.25241c1.63098,-0.50275 4.33454,-3.29156 10.91528,-7.91013c7.28978,-5.1195 28.84249,-10.88109 28.84249,-10.88109c-0.14524,-4.03476 -1.37929,-9.42202 -2.69454,-14.13531z" id="Path_87"/>
     <g stroke="null" id="Group_33">
      <g stroke="null" id="Group_30">
       <path stroke="null" fill="#787080" d="m1218.21958,976.01226l-35.13998,-124.59931l51.91883,-9.52221l10.50392,129.11769a7.89599,7.97206 0 0 1 -6.48061,8.52582l-11.76685,2.15673a7.89508,7.97115 0 0 1 -9.03532,-5.67872zm-28.56285,-120.46619l33.56944,119.02807a2.70627,2.73234 0 0 0 3.09868,1.94816l11.76775,-2.15855a2.70627,2.73234 0 0 0 2.22365,-2.92087l-10.03484,-123.34607l-40.62468,7.44927z" id="Path_88"/>
      </g>
      <g stroke="null" id="Group_31">
       <rect stroke="null" x="1330.11903" y="1049.09716" fill="#787080" transform="matrix(0.887571626417998,-0.16274007027155346,0.16118708922057928,0.8961230676275556,-119.5622946739735,254.84126890817947) " height="158.532" width="5.769" id="Rectangle_5"/>
      </g>
      <g stroke="null" id="Group_32">
       <rect stroke="null" x="1306.31176" y="997.52813" fill="#787080" transform="matrix(0.887568814582905,-0.16275570195335404,0.16120257173379715,0.896120228701418,-111.60357438372819,250.2261031077528) " height="5.769" width="34.172" id="Rectangle_6"/>
      </g>
      <path stroke="null" fill="#242838" d="m1183.64071,845.50289l48.77415,-8.94386a8.26223,8.34184 0 0 1 2.95344,16.41591l-48.77415,8.94386a8.26223,8.34184 0 0 1 -2.95344,-16.41591z" id="Path_89"/>
      <rect stroke="null" x="1142.52761" y="1018.17505" fill="#242838" transform="matrix(0.8876556337212265,-0.16302968627214431,0.16147394150010114,0.896207884311676,72.48664129691815,389.9425595364065) " rx="1.971" height="13.386" width="14.09" id="Rectangle_7"/>
     </g>
     <path stroke="null" fill="#e7b39e" d="m1183.77782,791.86066a74.86166,75.58293 0 0 0 -0.72889,13.02416c0.27063,4.21691 0.72889,7.35637 0.72889,10.57143s-5.76796,13.31106 -16.98724,13.71271s-11.21838,-5.62589 -6.90459,-9.64425s4.48789,-6.83085 3.1934,-14.86849s-1.5976,-11.25269 -1.5976,-11.25269l22.29603,-1.54286z" id="Path_90"/>
     <path stroke="null" opacity="0.5" fill="#e7b39e" d="m1161.48269,793.39988s0.3022,3.21505 1.5976,11.25269c1.05905,6.5731 1.13302,9.65427 -1.23586,12.75093c5.82479,-0.60294 14.90973,-2.82342 21.36327,-10.3829c-0.05503,-0.68582 -0.11096,-1.39167 -0.15787,-2.13942a74.85806,75.57929 0 0 1 0.72889,-13.02416l-22.29603,1.54286z" id="Path_91"/>
     <path stroke="null" fill="#e7b39e" d="m1164.94762,758.52427s-10.57158,-0.14481 -15.1551,7.34544s-2.92638,21.1802 1.56603,30.62863c3.93491,8.27535 9.18236,14.42767 16.16904,12.78462s16.37562,-12.7318 18.32955,-20.49256s0.54125,-20.38235 -4.82167,-25.66306c-6.06114,-5.96379 -16.08786,-4.60308 -16.08786,-4.60308z" id="Path_92"/>
     <path stroke="null" fill="#242838" d="m1172.12644,768.61936s-5.40081,5.69147 -12.31171,6.38548s-22.48818,-1.94361 -22.48818,-12.07786s4.2732,-0.55558 10.80612,-3.33163s12.81418,-5.55576 21.35696,-5.55576s10.38214,4.29524 10.80432,4.76065s7.62626,-0.18216 9.7173,9.2599s-5.02193,29.87815 -6.044,28.74696s-3.04365,-5.28253 -2.54118,-5.84083s4.90015,-5.13771 2.26154,-9.44024s-4.61238,-1.24959 -5.13289,1.52647s-1.08251,5.90004 -1.65173,5.27615s0.31483,-6.03847 -1.13032,-7.63598s-3.76893,-1.38803 -4.27139,-4.30253s0.62515,-7.77078 0.62515,-7.77078z" id="Path_93"/>
    </g>
    <g stroke="null" id="Group_35">
     <path stroke="null" fill="#e7b39e" d="m988.79487,838.28677s-8.90452,27.38625 -13.4276,32.58408c-10.0601,11.56691 -43.72877,31.37183 -45.49506,32.43744s-13.76678,20.41514 -14.90792,19.4907s2.15238,-7.18241 2.15238,-7.18241s-9.64063,10.23808 -9.46382,7.31721s6.25418,-9.48487 6.25418,-9.48487s-10.21165,7.87643 -9.91486,5.1195s7.9041,-8.18154 7.9041,-8.18154s-10.69517,4.68779 -9.91757,2.58662s12.58053,-8.12234 12.58053,-8.12234s-7.37368,-0.58108 -5.15634,-1.98186s7.48734,-1.78877 11.08577,-3.20504a25.23233,25.47544 0 0 0 6.41115,-3.26242c1.34772,-1.00641 33.33219,-26.90718 36.62482,-31.90008s11.90216,-29.9246 12.3514,-30.25977s12.91882,4.04478 12.91882,4.04478z" id="Path_94"/>
     <path stroke="null" fill="#79afaf" d="m990.21927,822.52754s-11.80564,-2.13487 -14.22053,8.15786c-1.93227,8.2371 -8.48866,18.30122 -8.48866,18.80944s18.28354,8.97574 18.28354,8.97574s7.88426,-13.03964 7.88426,-20.49256s-3.45861,-15.45048 -3.45861,-15.45048z" id="Path_95"/>
     <path stroke="null" fill="#f471b6" d="m974.46159,924.78541s-3.33773,71.356 -1.66886,89.44501s16.69406,88.43677 16.69406,88.43677l16.69496,-2.01009s-0.55749,-40.19911 -3.89522,-61.30463s-3.33773,-15.57434 -3.33773,-30.14683s24.4845,-79.89821 20.03269,-85.92666s-44.5199,1.50643 -44.5199,1.50643z" id="Path_96"/>
     <path stroke="null" fill="#ff95c9" d="m980.45595,915.30965s15.16863,79.44373 23.46514,97.64385s28.95706,87.98958 33.18786,89.71187s14.49206,1.28147 14.49206,1.28147s-3.27458,-45.37052 -10.16745,-61.80373s-8.62036,-16.21189 -8.74215,-36.09696s4.57449,-45.07634 4.02512,-58.92111s-7.13643,-28.69778 -7.13643,-28.69778s-39.87143,-1.06106 -49.12416,-3.1176z" id="Path_97"/>
     <path stroke="null" fill="#242838" d="m1052.39034,1101.0296s-16.53529,-0.14481 -16.99085,0.54647s2.64673,4.0384 2.56644,13.89031s0.82451,26.18949 11.9626,26.97276s10.67171,-8.85187 7.50809,-16.6263s-3.32781,-7.80174 -4.24613,-13.66171l-0.80015,-11.12154z" id="Path_98"/>
     <path stroke="null" opacity="0.5" fill="#ff95c9" d="m1051.60192,1103.95138s-3.27458,-45.37052 -10.16745,-61.80373s-8.62036,-16.21189 -8.74215,-36.09787s4.57449,-45.07634 4.02512,-58.92111s-7.13643,-28.69778 -7.13643,-28.69778s-12.76546,-0.34154 -25.52912,-1.01006a25.70954,25.95724 0 0 0 2.52585,9.22985s11.54674,16.02973 11.06322,45.65287s2.88668,45.16742 8.17744,59.73717c4.16404,11.4649 15.76942,52.68682 20.52884,71.39881c2.90112,0.3552 5.25467,0.51186 5.25467,0.51186z" id="Path_99"/>
     <path stroke="null" fill="#242838" d="m1006.49026,1098.42113l-17.86587,0.75959s2.23628,9.94299 0.34279,13.36024c-2.89931,5.23608 -15.1551,2.81613 -18.92312,5.28253c-4.98855,3.26242 -4.29936,9.47667 -4.29936,9.47667l42.86276,-1.49368l-2.1172,-27.38534z" id="Path_100"/>
     <path stroke="null" fill="#422d65" d="m1008.77616,769.45181s11.36632,4.62221 13.96344,19.44516s2.46541,29.96467 0.54847,33.78995s-10.67893,7.80994 -17.38596,8.12871s-20.94651,-0.79784 -23.00327,-4.7816s-5.47568,-30.12406 1.09514,-43.35315s14.24489,-17.69191 24.78219,-13.22908z" id="Path_101"/>
     <path stroke="null" fill="#e7b39e" d="m1040.82105,820.71964s16.51545,-23.50906 17.96691,-30.2707c3.23128,-15.04245 -1.00854,-54.15045 -1.2106,-56.21792s8.0746,-23.31598 6.66193,-23.69122s-4.44189,6.01662 -4.44189,6.01662s2.42211,-13.91399 0.20207,-12.03323s-3.83658,10.71715 -3.83658,10.71715s0.20207,-12.97316 -1.81591,-11.0933s-1.81681,11.28184 -1.81681,11.28184s-2.62508,-11.46946 -3.83658,-9.5887s1.00944,15.04063 1.00944,15.04063s-4.84512,-5.63955 -4.64305,-3.00558s3.02741,7.14416 4.03775,10.90477a25.19174,25.43445 0 0 1 1.2106,7.14416c0,1.69314 -1.61474,43.05714 -3.63271,48.69852s-16.75811,27.45001 -16.75811,28.01469s10.90355,8.08227 10.90355,8.08227z" id="Path_102"/>
     <path stroke="null" fill="#83bec1" d="m1031.9499,805.32928l15.41039,11.8028s-12.67345,16.58804 -18.15364,31.90008s-10.61759,27.11484 -8.56353,37.64164s13.01624,39.87396 13.01624,39.87396s-10.61939,8.61234 -28.08744,8.93111s-34.59602,-1.59387 -35.2807,-3.82528s3.90154,-43.70744 4.89834,-57.11413c0.80466,-10.83829 -6.17119,-13.54421 -4.56186,-24.65027c0.68739,-4.73606 8.854,-10.29182 12.07446,-22.21211c2.01797,-7.47477 31.0896,-9.58596 35.886,-7.03487c2.40046,1.27509 13.36174,-15.31295 13.36174,-15.31295z" id="Path_103"/>
     <path stroke="null" fill="#e5e5e6" d="m1047.36029,817.13208l-7.30692,-5.59857c-10.16925,12.21356 -33.95193,42.32579 -33.95193,56.8327c0,18.45605 -6.735,45.65287 -24.0515,48.08101c-4.21276,0.59201 -7.81931,0.89348 -10.89904,1.12664c-0.68108,7.60228 -1.09694,13.28555 -0.85518,14.07338c0.68469,2.23323 17.81085,4.14678 35.2807,3.82528s28.08744,-8.93111 28.08744,-8.93111s-10.96038,-29.34717 -13.01624,-39.87396s3.08334,-22.33051 8.56353,-37.64164s18.14913,-31.89371 18.14913,-31.89371z" id="Path_104"/>
     <path stroke="null" fill="#e7b39e" d="m1008.99985,805.32928s1.71397,8.93293 2.74055,12.12249s1.49657,3.46825 1.49657,6.02117s-4.5781,10.56505 -13.48443,10.88565s-8.90633,-4.46282 -5.48019,-7.65693s5.1374,-5.42279 4.10992,-11.80371s-1.37027,-8.93111 -1.37027,-8.93111l11.98786,-0.63755z" id="Path_105"/>
     <path stroke="null" opacity="0.5" fill="#e7b39e" d="m1008.99986,805.32928l-11.98786,0.63755s0.34279,2.55019 1.37027,8.93111c0.09021,0.54647 0.12629,1.01643 0.17501,1.50006a26.14344,26.39533 0 0 0 5.69669,0.14664a19.39491,19.58178 0 0 0 6.71786,-1.94816c-0.94178,-3.89996 -1.97197,-9.26719 -1.97197,-9.26719z" id="Path_106"/>
     <path stroke="null" fill="#e7b39e" d="m999.822,770.41997s-8.39394,0.15939 -11.78399,6.70061s-2.00534,20.23025 2.90473,27.59665c4.35799,6.54122 8.87926,10.37015 14.36757,8.77537s10.81515,-11.0086 12.10604,-17.7083s-0.24988,-17.47696 -4.68184,-21.85873c-5.00299,-4.94098 -12.9125,-3.50559 -12.9125,-3.50559z" id="Path_107"/>
     <path stroke="null" fill="#422d65" d="m1009.66741,775.84457s-5.97273,9.57139 -14.68962,13.40213c-4.62862,2.03286 -6.62404,8.19702 -6.3922,13.22362c0.28777,6.2434 0.90209,13.27736 2.78565,19.25754c1.43793,4.5539 3.6282,8.84823 4.56096,13.55059s0.32114,10.17615 -3.04184,13.3575c0.29228,-3.93002 -1.13934,-7.79719 -3.07973,-11.14431s-4.39498,-6.3199 -6.46166,-9.5805a35.08134,35.41934 0 0 1 -5.88523,-21.90609a85.69846,86.52414 0 0 1 3.79419,-22.66022c3.7121,-11.64706 11.29867,-18.98613 19.6926,-18.34767s10.97662,5.10583 10.97662,5.10583s11.94546,0.63755 13.23635,16.5926a245.54864,247.91442 0 0 0 4.13518,29.64226a30.31019,30.60222 0 0 1 0.92103,8.09411a22.32941,22.54455 0 0 1 -1.28187,5.82899c-1.76358,5.19145 -4.58893,10.08052 -8.66908,13.45496s-9.51163,5.08307 -14.52995,3.82528c1.90431,0.47725 7.75797,-13.57063 8.44175,-15.34392a68.03105,68.6865 0 0 0 4.16404,-17.89957c0.56741,-5.59219 2.25973,-9.9858 1.4677,-15.84758a51.66535,52.16312 0 0 0 -4.65658,-15.26559a21.83056,22.04088 0 0 0 -5.48831,-7.33998z" id="Path_108"/>
    </g>
    <g stroke="null" id="Group_53">
     <g stroke="null" id="Group_41">
      <g stroke="null" id="Group_36">
       <path stroke="null" fill="#242838" d="m706.42926,1102.63349l35.60726,0a29.31248,29.5949 0 0 0 27.17543,-18.35405l18.46306,-45.14374a21.86574,22.07641 0 0 1 20.27265,-13.69267l51.84937,0a29.30707,29.58943 0 0 0 28.59622,-22.78955l22.70558,-95.9917a22.01097,22.22304 0 0 1 18.74361,-16.84944l32.0413,-3.84167a3.73555,3.77154 0 1 0 -0.88134,-7.49117l-32.0413,3.84167a29.51094,29.79527 0 0 0 -25.12769,22.58735l-22.70648,95.9917a21.86123,22.07185 0 0 1 -21.3299,17.00154l-51.84937,0a29.31789,29.60036 0 0 0 -27.17904,18.35314l-18.46035,45.14647a21.86844,22.07914 0 0 1 -20.27175,13.69267l-35.60726,0a3.73465,3.77063 0 1 0 0,7.54217l0,-0.00273z" id="Path_109"/>
      </g>
      <g stroke="null" id="Group_37">
       <path stroke="null" fill="#242838" d="m797.1623,1027.16259l17.23802,-60.48401a11.42586,11.53594 0 0 1 10.93242,-8.30723l70.58486,0l0,-7.54217l-70.58306,0a18.92763,19.10999 0 0 0 -18.10944,13.76553l-17.24073,60.48219l7.17792,2.08569z" id="Path_110"/>
      </g>
      <g stroke="null" id="Group_38">
       <path stroke="null" fill="#242838" d="m851.13246,1067.23966c32.97677,0 33.80308,-0.83883 34.77012,-1.82156c1.84567,-1.86346 3.0671,-3.0921 -10.46423,-47.90705l-7.14545,2.19862c4.68094,15.50513 9.49449,32.73071 10.9243,39.67086c-14.02478,0.5747 -69.73148,0.09108 -105.19712,-0.40074l-0.10103,7.54217c36.37494,0.50913 60.78547,0.71769 77.21341,0.71769z" id="Path_111"/>
      </g>
      <g stroke="null" id="Group_39">
       <path stroke="null" fill="#242838" d="m806.28692,1060.74304a76.97436,77.71598 0 1 1 76.97526,77.71507a77.06276,77.80523 0 0 1 -76.97526,-77.71507zm7.28166,0a69.69269,70.36416 0 1 0 69.6936,-70.36507a69.77118,70.4434 0 0 0 -69.6936,70.36507z" id="Path_112"/>
      </g>
      <g stroke="null" id="Group_40">
       <path stroke="null" fill="#242838" d="m819.33292,1060.74215a63.92835,64.54427 0 1 1 63.92835,64.54336a63.99871,64.61531 0 0 1 -63.92835,-64.54336z" id="Path_113"/>
      </g>
     </g>
     <g stroke="null" id="Group_42">
      <path stroke="null" fill="#242838" d="m764.74212,1071.02667s-0.85969,18.73748 -1.96565,19.85501s-44.49374,0.24864 -45.10445,-2.35801s2.95073,-5.7279 11.06142,-7.33087s20.63439,-7.4347 21.31727,-10.16431s1.66706,-5.95741 1.66706,-5.95741l13.02436,5.95559z" id="Path_114"/>
      <path stroke="null" fill="#871828" d="m830.93199,958.83765s-57.71025,-9.87741 -64.1232,3.07115s-18.41344,105.39368 -18.41344,105.39368l14.96115,3.47463s23.18369,-74.00728 23.18369,-84.46577c0,0 57.71205,29.38177 73.99025,18.426s-8.38943,-37.3511 -14.30623,-43.32673s-15.29221,-2.57295 -15.29221,-2.57295z" id="Path_115"/>
      <path stroke="null" fill="#29314c" d="m767.69193,1075.36654s-0.85969,18.73748 -1.96565,19.85501s-44.49374,0.24864 -45.10445,-2.35619s2.95073,-5.72972 11.06142,-7.33087s20.63348,-7.43652 21.31727,-10.16613s1.66706,-5.95741 1.66706,-5.95741l13.02436,5.95559z" id="Path_116"/>
      <path stroke="null" fill="#a22330" d="m835.37117,960.41513s-53.76451,-4.97924 -58.69623,4.48286s-23.67713,105.57766 -23.67713,105.57766l15.29041,5.97654s30.08918,-75.69678 30.08918,-83.167c0,0 57.10675,28.47919 74.6172,15.53063s-2.09194,-37.34655 -10.07994,-45.41151s-27.54349,-2.98918 -27.54349,-2.98918z" id="Path_117"/>
      <path stroke="null" fill="#e0b288" d="m815.77329,847.71243a47.50672,47.96443 0 0 0 -1.57054,-6.87366c-1.01575,-3.09028 -6.23885,-12.20446 -3.55243,-12.32195s3.99355,6.11407 5.51627,4.9765s-2.56825,-23.27499 1.45868,-21.94252s8.88919,12.60429 9.04705,19.06445s-2.88668,16.01334 -2.88668,16.01334l-8.01236,1.08383z" id="Path_118"/>
      <path stroke="null" fill="#eec130" d="m887.06991,876.99585c-1.18174,0 -41.41671,14.73369 -47.72773,13.93494s-14.19978,-45.00166 -14.19978,-45.00166s-9.86254,-0.79784 -10.65097,1.59204c0,0 -0.39331,57.74348 13.80647,61.33104s53.64453,-1.99097 57.98358,-4.77886s0.78843,-27.0775 0.78843,-27.0775z" id="Path_119"/>
      <path stroke="null" fill="#df922f" d="m923.73801,877.46216s-34.10799,-11.5068 -41.99946,4.43095s-19.73049,50.29876 -32.06295,62.75277s-21.86303,11.95126 -21.86303,11.95126s17.69899,42.77298 51.36585,57.57407c0,0 14.39734,-3.29156 28.70177,-30.68055s32.99391,-82.12416 15.85782,-106.0285z" id="Path_120"/>
      <path stroke="null" opacity="0.5" fill="#df922f" d="m923.73801,877.45852a90.55711,91.4296 0 0 0 -10.46423,-2.65492c2.71619,13.01141 6.7377,44.82315 -11.55937,69.32951c-21.14497,28.3198 -50.40964,23.40706 -63.84986,9.47667c-6.09632,3.16678 -10.05378,2.98007 -10.05378,2.98007s17.69899,42.77298 51.36585,57.57407c0,0 14.39734,-3.29156 28.70177,-30.68055s32.99571,-82.11687 15.85963,-106.02485z" id="Path_121"/>
      <path stroke="null" fill="#e7b39e" d="m892.91453,862.30769s2.38061,11.9212 -2.8515,14.64626c-7.84817,4.08121 1.18986,11.28275 9.27438,8.16241s9.27438,-8.64239 9.27438,-11.04412s0.71265,-14.64444 0.71265,-14.64444l-16.4099,2.87989z" id="Path_122"/>
      <path stroke="null" opacity="0.5" fill="#e7b39e" d="m908.92481,866.60384c0.19124,-3.64312 0.39692,-7.17604 0.39692,-7.17604l-16.4081,2.87989s1.12671,5.64137 0.12629,10.04955a55.16545,55.69695 0 0 0 15.88489,-5.7534z" id="Path_123"/>
      <path stroke="null" fill="#e7b39e" d="m902.71483,822.21059s-11.42315,-3.91636 -16.59844,2.39444s-13.36445,30.68601 -7.54417,39.17357s24.14171,3.91636 31.47028,-3.04747s11.85616,-19.15007 8.40657,-27.42086s-15.73424,-11.09968 -15.73424,-11.09968z" id="Path_124"/>
      <path stroke="null" fill="#2b3760" d="m907.2415,854.63893c0.6468,-0.65212 5.17348,-2.61212 4.09639,-7.1815s-6.25148,3.26424 -7.11387,2.6103s1.2945,-2.6103 0.4312,-5.441s-1.72389,-3.26424 -1.72389,-6.74524s2.15509,-2.61212 1.72389,-4.78797c-0.54125,-2.75056 -3.87898,-4.14496 -6.41566,-3.68866c-3.7987,0.68309 -7.20138,1.24322 -11.14982,0.47998a14.09604,14.23185 0 0 1 -8.34072,-4.61766c-2.65485,-3.24966 0.98147,-5.40548 3.7581,-6.97658a51.75105,52.24965 0 0 1 5.81667,-2.97552a31.21228,31.513 0 0 1 9.66679,-2.12667c4.30928,-0.28872 8.77011,0.17669 12.62113,2.15217s9.52606,6.6487 10.18278,10.9576a3.27909,3.31069 0 0 0 0.83263,2.20773a3.54341,3.57755 0 0 0 1.253,0.50913c3.73104,1.11206 3.38644,4.25061 3.48477,8.17699a26.47541,26.73049 0 0 1 -4.1893,14.49325c-2.78565,3.98102 -7.26091,6.55124 -11.34287,8.95388c-1.9846,1.16762 -2.41489,-0.50093 -2.84609,-2.18587c-0.12178,-0.47543 -1.09423,-3.4637 -0.74513,-3.81435z" id="Path_125"/>
     </g>
     <g stroke="null" id="Group_52">
      <g stroke="null" id="Group_44">
       <g stroke="null" id="Group_43">
        <path stroke="null" fill="#868a8f" d="m740.66536,1102.63349l35.60726,0a29.31248,29.5949 0 0 0 27.17814,-18.35405l18.46215,-45.14374a21.86574,22.07641 0 0 1 20.27265,-13.69267l51.84937,0a29.30707,29.58943 0 0 0 28.59622,-22.78955l22.70648,-95.9917a22.01097,22.22304 0 0 1 18.74361,-16.84944l32.0413,-3.84167a3.73555,3.77154 0 1 0 -0.88134,-7.49117l-32.0413,3.84167a29.51094,29.79527 0 0 0 -25.12769,22.58735l-22.70739,95.9917a21.86123,22.07185 0 0 1 -21.3299,17.00154l-51.84937,0a29.31789,29.60036 0 0 0 -27.17904,18.35222l-18.46035,45.14738a21.86754,22.07823 0 0 1 -20.27175,13.69267l-35.60906,0a3.73465,3.77063 0 1 0 0,7.54217l0,-0.00273z" id="Path_126"/>
       </g>
      </g>
      <g stroke="null" id="Group_45">
       <path stroke="null" fill="#868a8f" d="m831.39927,1027.16259l17.24073,-60.48401a11.42586,11.53594 0 0 1 10.93242,-8.30723l70.58486,0l0,-7.54217l-70.58486,0a18.92763,19.10999 0 0 0 -18.10944,13.76553l-17.24073,60.4831l7.17702,2.08478z" id="Path_127"/>
      </g>
      <g stroke="null" id="Group_47">
       <g stroke="null" id="Group_46">
        <path stroke="null" fill="#868a8f" d="m885.37036,1067.23966c32.97677,0 33.80308,-0.83883 34.77012,-1.82156c1.84567,-1.86346 3.0671,-3.0921 -10.46423,-47.90705l-7.14545,2.19862c4.68094,15.50513 9.49449,32.73071 10.9243,39.67086c-14.02478,0.5747 -69.73148,0.09108 -105.19712,-0.40074l-0.10103,7.54217c36.37494,0.50913 60.78547,0.71769 77.21341,0.71769z" id="Path_128"/>
       </g>
      </g>
      <g stroke="null" id="Group_48">
       <path stroke="null" fill="#868a8f" d="m838.53029,1062.75678a78.96978,79.73062 0 1 1 78.96978,79.73154a79.05909,79.82079 0 0 1 -78.96978,-79.73154zm7.4702,0a71.49958,72.18845 0 1 0 71.49958,-72.18845a71.57986,72.26951 0 0 0 -71.49958,72.18845z" id="Path_129"/>
      </g>
      <g stroke="null" id="Group_49">
       <path stroke="null" fill="#304783" d="m851.91459,1062.75587a65.58187,66.21373 0 1 1 65.58187,66.21373a65.65765,66.29024 0 0 1 -65.58187,-66.21373z" id="Path_130"/>
      </g>
      <g stroke="null" id="Group_50">
       <path stroke="null" fill="#cfd1d2" d="m868.7223,1062.7568a48.77776,49.24772 0 1 1 48.77776,49.24772a48.83188,49.30236 0 0 1 -48.77776,-49.24772z" id="Path_131"/>
      </g>
      <g stroke="null" id="Group_51">
       <path stroke="null" fill="#304783" d="m899.34732,1062.75587a18.15184,18.32672 0 1 1 18.15184,18.32672a18.17258,18.34767 0 0 1 -18.15184,-18.32672z" id="Path_132"/>
      </g>
     </g>
     <path stroke="null" fill="#e0b288" d="m884.83272,952.33378s-16.34405,-9.20435 -25.77539,-7.61686s-19.17481,9.83643 -16.03012,10.47397s14.14476,-0.95268 16.65888,0s9.42954,2.85621 12.88724,0.63755l8.80168,3.80797l3.45771,-7.30264z" id="Path_133"/>
     <path stroke="null" fill="#eec130" d="m933.24062,886.32224s-7.54417,-14.5989 -19.48512,-8.25167s8.17293,73.62749 3.77163,76.48369s-38.34781,-5.7115 -38.34781,-5.7115s-6.41295,13.96317 0.31302,13.96317c1.25751,0 47.77824,18.08901 56.89476,12.05964s-3.14649,-88.54334 -3.14649,-88.54334z" id="Path_134"/>
    </g>
    <g stroke="null" id="Group_54">
     <path stroke="null" fill="#1e2f5a" d="m496.85233,1123.34463s28.73063,15.73282 26.62696,18.14548s-35.72273,0.07468 -36.52739,-3.01377s-0.22733,-14.29925 -0.22733,-14.29925l10.12775,-0.83245z" id="Path_135"/>
     <path stroke="null" fill="#df922f" d="m462.39794,909.39686c-0.18042,-1.61755 46.5478,4.75245 46.5478,4.75245s-1.5119,70.71754 -3.05447,106.25528s-5.91139,104.09127 -5.91139,104.09127s-11.0109,2.48552 -13.89939,0.63755s-7.37819,-80.83631 -8.75026,-102.70506s-12.79072,-93.67012 -14.93228,-113.03149z" id="Path_136"/>
     <path stroke="null" opacity="0.5" fill="#df922f" d="m508.48477,934.24113c0.15606,-6.51754 0.27784,-11.8702 0.36084,-15.40403c-0.36084,-1.54833 -0.75234,-3.18136 -1.18174,-4.86175c-7.48283,-1.00186 -45.42289,-6.03756 -45.26142,-4.5794c2.14156,19.36137 13.55028,91.16183 14.92506,113.02784s5.86358,100.85618 8.75026,102.70506c1.15016,0.73591 3.58761,0.78054 6.10444,0.57288c-0.51509,-18.26934 -1.90702,-73.54187 -0.30851,-86.86386c1.92506,-16.02973 -5.29075,-60.22444 -4.33003,-79.16412c0.74332,-14.58979 14.60663,-22.54637 20.9411,-25.43263z" id="Path_137"/>
     <path stroke="null" fill="#df922f" d="m495.51092,918.32979s-37.36092,84.91479 -50.74431,94.36595s-34.90453,13.96864 -39.66395,13.83931s-16.28632,-16.88496 -12.55167,-21.78769s24.33385,-0.05283 28.86685,-13.25368s20.89058,-77.50741 24.95539,-82.00211s49.13769,8.83821 49.13769,8.83821z" id="Path_138"/>
     <path stroke="null" opacity="0.5" fill="#df922f" d="m471.1906,920.82351a79.56425,80.33083 0 0 0 -2.53487,-9.46756c-10.4931,-2.3234 -20.4675,-3.869 -22.2816,-1.86528c-4.06481,4.49106 -20.41788,68.80308 -24.95539,82.00211s-25.13401,8.35095 -28.86685,13.25368c-1.6418,2.15673 -0.33016,6.6068 2.05767,10.92936c12.1782,-1.41991 25.28375,-4.22329 29.92229,-7.42832c9.13997,-6.31353 8.17744,-15.05611 20.20679,-50.02461s24.5278,-37.39937 26.45196,-37.39937z" id="Path_139"/>
     <path stroke="null" fill="#1e2f5a" d="m413.39556,1025.6097l-1.28457,0.07013c-8.74305,-9.90291 -6.82701,-24.34698 -6.82701,-24.34698a1.56873,1.58385 0 0 0 -1.23135,-0.67033c-0.79654,0.00455 -12.20436,1.45725 -17.69267,5.19145a16.56687,16.72648 0 0 0 -3.80501,3.13491c-2.99133,3.8353 -7.38901,6.28438 -12.21699,6.00569c-15.86594,-0.9044 -43.64668,-2.02922 -52.83536,8.20704a20.77331,20.97345 0 0 0 -4.43377,21.26399c3.07522,9.25717 12.4777,17.06529 23.95137,19.89691l0.09021,0.01913a1.87274,1.89078 0 0 0 0.79925,-3.69321c-10.25585,-2.53015 -18.6119,-9.36829 -21.2893,-17.42414c-1.99903,-6.01844 -0.691,-12.13068 3.78877,-17.6746c7.48734,-9.27174 25.57152,-5.52206 38.78261,-2.78426c1.52363,0.31604 25.16828,4.68141 25.71856,5.64684c2.60614,4.5457 7.10666,4.30617 19.88746,2.20955c9.4999,-1.55652 8.59781,-5.0521 8.59781,-5.0521z" id="Path_140"/>
     <path stroke="null" fill="#e0b288" d="m592.86528,744.37075a40.27647,40.66452 0 0 1 2.90743,-5.21877c1.55971,-2.27058 7.97357,-8.43383 5.81396,-9.17702s-4.70259,4.01381 -5.67324,2.7205s7.60551,-18.33674 4.01069,-18.2238s-10.22608,8.11961 -11.88502,13.34111s-1.44334,13.74185 -1.44334,13.74185l6.26952,2.81613z" id="Path_141"/>
     <path stroke="null" fill="#e0b288" d="m378.24927,870.12492a37.44933,37.81014 0 0 0 -1.45417,5.36905c-0.43751,2.53015 -0.18042,10.83829 -2.09555,9.90291s-0.51058,-5.75613 -1.99091,-5.53937s-6.83423,17.1418 -9.13816,14.69544s-1.50919,-12.11338 0.77309,-16.66728s7.93838,-10.03589 7.93838,-10.03589l5.96732,2.27513z" id="Path_142"/>
     <path stroke="null" fill="#761b4e" d="m585.04236,740.72762s-8.56985,36.80099 -29.35308,52.53745c-16.01118,12.12431 -39.36987,15.31477 -44.69851,13.47044c-10.00597,1.34795 -26.49706,-2.07385 -39.60171,-3.60214c0,0 -10.08175,-1.02463 -16.42524,1.83431c-9.41059,2.16857 -35.46202,8.7781 -49.40922,18.41051c-17.22449,11.89297 -36.37674,44.85958 -36.37674,44.85958l9.51614,4.57758s28.67019,-32.04945 39.54668,-35.2472c6.76567,-1.99279 21.04393,-4.32712 30.86047,-5.80714c0.28145,14.77104 1.2503,32.93564 0.35542,44.31584c-1.55159,19.75847 -9.44217,38.23183 -8.66005,41.1108s20.9447,10.62243 40.53988,11.71901s30.89655,-0.15939 31.46757,-2.01829c0.53584,-1.74688 6.01152,-66.21829 2.86503,-94.55266c7.74173,0.04007 38.02666,-8.75624 51.37036,-20.87964c22.91306,-20.81771 31.35481,-68.70381 31.35481,-68.70381l-13.35182,-2.02466z" id="Path_143"/>
     <path stroke="null" fill="#e5e5e6" d="m460.12558,898.96934c-8.66005,-20.40148 5.77337,-56.8245 0.48172,-71.39425s-30.7865,-5.34173 -42.33143,-0.96998c-10.06731,3.81162 -36.95588,36.05415 -43.67284,44.24389l4.08646,1.96546s28.67019,-32.04945 39.54758,-35.2472c6.76567,-1.99279 21.04393,-4.32712 30.86047,-5.80714c0.28145,14.77104 1.2503,32.93564 0.35542,44.31584c-1.55159,19.75847 -9.44217,38.23183 -8.66005,41.1108s20.9447,10.62243 40.53988,11.71901s30.89655,-0.15939 31.46757,-2.01829c0.09833,-0.31877 0.36084,-2.74782 0.70453,-6.6487c-9.7173,-0.52643 -45.89829,-3.64585 -53.37932,-21.26945z" id="Path_144"/>
     <path stroke="null" fill="#e7b39e" d="m490.37353,797.14409s-3.51093,11.43485 1.34501,14.62895c7.27986,4.78979 -2.28229,10.92936 -9.8905,7.05855s-8.22525,-9.40016 -7.988,-11.74907s0.75234,-14.4131 0.75234,-14.4131l15.78115,4.47466z" id="Path_145"/>
     <path stroke="null" opacity="0.5" fill="#e7b39e" d="m490.37353,797.14409l-15.78205,-4.47649s-0.16598,3.87992 -0.35272,7.66786c3.29804,3.76881 8.41018,7.85912 15.5006,8.73529c-1.62196,-4.55846 0.63417,-11.92667 0.63417,-11.92667z" id="Path_146"/>
     <path stroke="null" fill="#e7b39e" d="m481.99492,762.1173s9.87607,-2.2897 13.66755,3.43s8.57436,26.79243 2.99494,33.38557s-20.50539,1.19494 -26.0406,-5.25702s-8.28839,-17.0234 -4.708,-23.63839s14.08612,-7.92015 14.08612,-7.92015z" id="Path_147"/>
     <path stroke="null" fill="#2b3760" d="m474.83324,790.43437c-0.54125,-0.66669 -4.54202,-2.9145 -3.11762,-7.03487s5.47748,3.61489 6.33537,3.09665s-0.9517,-2.53834 0.11096,-5.07396s1.9007,-2.85439 2.22636,-6.07582s-1.75095,-2.62123 -1.14746,-4.59307s3.01839,-3.96007 8.50039,-2.37896s12.08799,-0.47361 14.44966,-5.42643c2.66748,-5.59857 -1.7699,-14.16263 -12.54355,-11.2026s-11.98155,8.67792 -18.50275,9.42931s-10.76282,6.82357 -9.71369,10.38927c0.61342,2.08387 -1.8556,4.3845 -2.06669,6.50479c-0.45104,4.51838 1.53355,9.361 4.3192,12.81286c1.79786,2.22413 9.14628,7.95476 11.66852,3.68593c0.45465,-0.7769 -0.3464,-3.20777 -0.5187,-4.13312z" id="Path_148"/>
    </g>
   </g>
  </g>
 </g>
</svg>